<svg viewBox="0 0 46 46" fill="none" xmlns="http://www.w3.org/2000/svg">
<path d="M43.4336 25.0679L45.8847 11.6313C45.9463 11.2848 45.9312 10.929 45.8406 10.5889C45.7499 10.2488 45.5858 9.93268 45.3599 9.66276C45.1339 9.39284 44.8515 9.17568 44.5327 9.02653C44.2138 8.87737 43.866 8.79986 43.514 8.79942H11.7708L10.9069 4.05948C10.7418 3.13565 10.2568 2.29936 9.53683 1.69714C8.81687 1.09491 7.90789 0.765144 6.96915 0.765626H3.33275C2.69335 0.765626 2.08013 1.01955 1.628 1.47154C1.17588 1.92353 0.921875 2.53656 0.921875 3.17576C0.921875 3.81497 1.17588 4.428 1.628 4.87999C2.08013 5.33198 2.69335 5.5859 3.33275 5.5859H6.28607L11.6101 34.8289C10.8694 35.5808 10.3253 36.5035 10.0258 37.5155C9.72639 38.5274 9.68082 39.5975 9.89313 40.6313C10.1055 41.665 10.5691 42.6306 11.2432 43.4427C11.9173 44.2548 12.7811 44.8885 13.7582 45.2878C14.7354 45.6871 15.7958 45.8397 16.846 45.7322C17.8961 45.6246 18.9036 45.2602 19.7794 44.6711C20.6553 44.0821 21.3726 43.2864 21.8679 42.3545C22.3633 41.4227 22.6215 40.3832 22.6197 39.3278C22.6149 38.7863 22.5475 38.2472 22.4188 37.7211H30.8569C30.7282 38.2472 30.6608 38.7863 30.656 39.3278C30.656 40.599 31.033 41.8416 31.7395 42.8985C32.4459 43.9554 33.45 44.7792 34.6247 45.2657C35.7995 45.7521 37.0921 45.8794 38.3392 45.6314C39.5863 45.3834 40.7319 44.7713 41.631 43.8724C42.5301 42.9736 43.1424 41.8284 43.3904 40.5817C43.6385 39.335 43.5112 38.0427 43.0246 36.8683C42.538 35.6939 41.714 34.6902 40.6567 33.984C39.5995 33.2778 38.3565 32.9008 37.085 32.9008H16.1506L15.5679 29.6873H37.9087C39.2247 29.6849 40.4982 29.2214 41.5076 28.3774C42.5171 27.5334 43.1986 26.3623 43.4336 25.0679ZM17.798 39.3278C17.798 39.6456 17.7037 39.9563 17.5271 40.2205C17.3505 40.4847 17.0995 40.6907 16.8058 40.8123C16.5121 40.9339 16.189 40.9657 15.8772 40.9037C15.5654 40.8417 15.279 40.6887 15.0542 40.464C14.8295 40.2393 14.6764 39.953 14.6144 39.6413C14.5524 39.3296 14.5842 39.0066 14.7058 38.713C14.8275 38.4194 15.0335 38.1684 15.2978 37.9919C15.5621 37.8153 15.8729 37.7211 16.1907 37.7211C16.617 37.7211 17.0258 37.8904 17.3272 38.1917C17.6287 38.493 17.798 38.9017 17.798 39.3278ZM37.085 40.9346C36.7671 40.9346 36.4564 40.8404 36.192 40.6638C35.9277 40.4873 35.7217 40.2363 35.6001 39.9427C35.4784 39.6491 35.4466 39.3261 35.5086 39.0144C35.5706 38.7027 35.7237 38.4164 35.9485 38.1917C36.1733 37.967 36.4596 37.814 36.7714 37.752C37.0832 37.69 37.4064 37.7218 37.7 37.8434C37.9937 37.965 38.2448 38.1709 38.4214 38.4352C38.598 38.6994 38.6922 39.0101 38.6922 39.3278C38.6922 39.754 38.5229 40.1627 38.2215 40.464C37.9201 40.7653 37.5112 40.9346 37.085 40.9346ZM12.6548 13.6197H40.6209L38.6922 24.2042C38.6594 24.3887 38.5632 24.5559 38.4201 24.677C38.277 24.798 38.0961 24.8652 37.9087 24.867H14.704L12.6548 13.6197Z" fill="#5C5C5C"/>
</svg>
